HIERARCHY
ROOT Hips
{
	OFFSET 0.000000 0.000000 0.000000
	CHANNELS 6 Xposition Yposition Zposition Xrotation Yrotation Zrotation
	JOINT LeftUpLeg_virtual
	{
		OFFSET 0.000000 0.000000 0.000000
		CHANNELS 3 Xrotation Yrotation Zrotation
		JOINT LeftUpLeg
		{
			OFFSET 10.205400 -3.823500 0.155100
			CHANNELS 3 Xrotation Yrotation Zrotation
			JOINT LeftLeg
			{
				OFFSET 0.708757 -12.982077 0.567790
				CHANNELS 3 Xrotation Yrotation Zrotation
				JOINT LeftFoot
				{
					OFFSET -0.708756 -10.717838 -2.184338
					CHANNELS 3 Xrotation Yrotation Zrotation
					JOINT LeftToeBase
					{
						OFFSET 0.108149 -7.191104 7.560241
						CHANNELS 3 Xrotation Yrotation Zrotation
						JOINT LeftToe_End
						{
							OFFSET 0.070230 0.081724 4.490308
							CHANNELS 3 Xrotation Yrotation Zrotation
							End Site
							{
								OFFSET 0 0 0
							}
						}
					}
				}
			}
		}
	}
	JOINT RightUpLeg_virtual
	{
		OFFSET 0.000000 0.000000 0.000000
		CHANNELS 3 Xrotation Yrotation Zrotation
		JOINT RightUpLeg
		{
			OFFSET -10.205400 -3.823500 0.005500
			CHANNELS 3 Xrotation Yrotation Zrotation
			JOINT RightLeg
			{
				OFFSET -0.708756 -12.982134 0.610632
				CHANNELS 3 Xrotation Yrotation Zrotation
				JOINT RightFoot
				{
					OFFSET 0.708754 -10.717769 -1.945823
					CHANNELS 3 Xrotation Yrotation Zrotation
					JOINT RightToeBase
					{
						OFFSET -0.108140 -7.191069 7.372968
						CHANNELS 3 Xrotation Yrotation Zrotation
						JOINT RightToe_End
						{
							OFFSET -0.070227 0.081735 4.479403
							CHANNELS 3 Xrotation Yrotation Zrotation
							End Site
							{
								OFFSET 0 0 0
							}
						}
					}
				}
			}
		}
	}
	JOINT Spine_virtual
	{
		OFFSET 0.000000 0.000000 0.000000
		CHANNELS 3 Xrotation Yrotation Zrotation
		JOINT Spine
		{
			OFFSET 0.000000 6.876099 0.125700
			CHANNELS 3 Xrotation Yrotation Zrotation
			JOINT Spine1
			{
				OFFSET 0.000000 5.730043 0.104720
				CHANNELS 3 Xrotation Yrotation Zrotation
				JOINT Spine1_split
				{
					OFFSET 0.000000 5.730043 0.104720
					CHANNELS 3 Xrotation Yrotation Zrotation
					JOINT Spine2
					{
						OFFSET 0.000000 5.730043 0.104720
						CHANNELS 3 Xrotation Yrotation Zrotation
						JOINT Neck_virtual
						{
							OFFSET 0.000000 0.000000 0.000000
							CHANNELS 3 Xrotation Yrotation Zrotation
							JOINT Neck
							{
								OFFSET 0.000000 10.314075 0.188496
								CHANNELS 3 Xrotation Yrotation Zrotation
								JOINT Head
								{
									OFFSET 0.000000 7.643700 -2.377400
									CHANNELS 3 Xrotation Yrotation Zrotation
									JOINT HeadTop_End
									{
										OFFSET 0.000000 43.788605 -13.619600
										CHANNELS 3 Xrotation Yrotation Zrotation
										End Site
										{
											OFFSET 0 0 0
										}
									}
								}
							}
						}
						JOINT LeftShoulder_virtual
						{
							OFFSET 0.000000 0.000000 0.000000
							CHANNELS 3 Xrotation Yrotation Zrotation
							JOINT LeftShoulder
							{
								OFFSET 2.196100 4.412489 0.087492
								CHANNELS 3 Xrotation Yrotation Zrotation
								JOINT LeftShoulder_split
								{
									OFFSET 2.196100 4.412489 0.087492
									CHANNELS 3 Xrotation Yrotation Zrotation
									JOINT LeftArm
									{
										OFFSET 8.771219 -2.981674 -0.026999
										CHANNELS 3 Xrotation Yrotation Zrotation
										JOINT LeftForeArm
										{
											OFFSET 8.512804 0.000000 -0.000000
											CHANNELS 3 Xrotation Yrotation Zrotation
											JOINT LeftHand
											{
												OFFSET 18.484802 0.000000 -0.000000
												CHANNELS 3 Xrotation Yrotation Zrotation
												End Site
												{
													OFFSET 0 0 0
												}
											}
										}
									}
								}
							}
						}
						JOINT RightShoulder_virtual
						{
							OFFSET 0.000000 0.000000 0.000000
							CHANNELS 3 Xrotation Yrotation Zrotation
							JOINT RightShoulder
							{
								OFFSET -2.196100 4.412496 0.070690
								CHANNELS 3 Xrotation Yrotation Zrotation
								JOINT RightShoulder_split
								{
									OFFSET -2.196100 4.412496 0.070690
									CHANNELS 3 Xrotation Yrotation Zrotation
									JOINT RightArm
									{
										OFFSET -8.771282 -2.981682 -0.094208
										CHANNELS 3 Xrotation Yrotation Zrotation
										JOINT RightForeArm
										{
											OFFSET -8.494598 0.000000 0.000000
											CHANNELS 3 Xrotation Yrotation Zrotation
											JOINT RightHand
											{
												OFFSET -18.483803 0.000000 0.000001
												CHANNELS 3 Xrotation Yrotation Zrotation
												End Site
												{
													OFFSET 0 0 0
												}
											}
										}
									}
								}
							}
						}
					}
				}
			}
		}
	}
}
MOTION
Frames: 4
Frame Time: 0.03333333
-0.774458 26.976597 0.362782 0.000000 0.000000 0.000000 8.120376 -10.728193 3.267738 -57.246616 -4.766919 31.981842 56.725623 -4.132540 5.001369 -0.590962 3.463590 -30.058648 0.000026 0.000001 -0.000002 0.000000 0.000000 0.000000 8.120376 -10.728193 3.267738 -24.991657 3.612668 -42.492820 58.047920 9.265138 0.192861 -31.532613 -13.860867 33.028479 -0.002734 -0.000008 0.000006 0.000000 0.000000 0.000000 8.120376 -10.728193 3.267738 8.210781 1.472578 -1.622259 6.501512 1.669132 -0.600554 0.000000 0.000000 0.000000 0.000000 0.000000 0.000000 6.503134 1.665273 -0.587176 -1.740223 -0.081393 0.346733 -18.113897 -0.499812 1.304437 0.000000 0.000000 0.000000 6.503134 1.665273 -0.587176 2.609662 -14.773703 -9.661128 0.000000 0.000000 0.000000 -25.061858 -6.032406 -45.944995 179.999991 -55.274296 -179.999991 0.000000 0.000000 0.000000 6.503134 1.665273 -0.587176 1.602771 8.845898 9.965445 0.000000 0.000000 0.000000 3.934427 4.254974 41.144377 -0.001622 89.361728 0.001946 0.000000 0.000000 0.000000 
-0.743610 27.014637 0.393894 0.000000 0.000000 0.000000 8.206045 -10.715214 3.120475 -57.382885 -4.794919 31.971248 56.885258 -4.072753 5.123922 -0.706917 3.495940 -30.021509 0.000076 0.000005 0.000005 0.000000 0.000000 0.000000 8.206045 -10.715214 3.120475 -24.872720 3.385109 -42.331709 57.472005 9.128109 0.221210 -31.132163 -13.762439 33.153328 -0.059011 -0.000009 0.000003 0.000000 0.000000 0.000000 8.206045 -10.715214 3.120475 8.164881 1.462286 -1.675682 6.469512 1.666597 -0.622082 0.000000 0.000000 0.000000 0.000000 0.000000 0.000000 6.471171 1.662710 -0.608366 -1.660621 -0.094398 0.408574 -18.088769 -0.528532 1.378604 0.000000 0.000000 0.000000 6.471171 1.662710 -0.608366 2.606479 -14.776942 -9.549425 0.000000 0.000000 0.000000 -25.079259 -5.936105 -46.237468 -179.999964 -55.052400 -179.999978 0.000000 0.000000 0.000000 6.471171 1.662710 -0.608366 1.612945 8.972296 9.892405 0.000000 0.000000 0.000000 4.280576 4.276510 41.166605 0.002878 89.494097 -0.002372 0.000000 0.000000 0.000000 
-0.717292 27.025452 0.419086 0.000000 0.000000 0.000000 8.253904 -10.803781 3.037429 -57.297029 -5.023408 32.061253 57.121944 -3.913870 4.973121 -0.916538 3.558801 -30.026475 0.000082 0.000004 -0.000002 0.000000 0.000000 0.000000 8.253904 -10.803781 3.037429 -24.885028 3.334216 -42.263022 57.163489 9.145408 0.224678 -30.850721 -13.692786 33.247691 -0.101861 -0.000005 -0.000001 0.000000 0.000000 0.000000 8.253904 -10.803781 3.037429 8.124697 1.468682 -1.739139 6.441681 1.676749 -0.649059 0.000000 0.000000 0.000000 0.000000 0.000000 0.000000 6.443582 1.672274 -0.634775 -1.530189 -0.088175 0.425715 -18.010343 -0.506131 1.446723 0.000000 0.000000 0.000000 6.443582 1.672274 -0.634775 2.608812 -14.838632 -9.394285 0.000000 0.000000 0.000000 -25.202305 -5.748887 -46.782254 179.999950 -55.053712 179.999978 0.000000 0.000000 0.000000 6.443582 1.672274 -0.634775 1.632853 9.221995 9.735129 0.000000 0.000000 0.000000 4.785602 4.318985 40.998388 0.002402 89.635229 -0.001566 0.000000 0.000000 0.000000 
-0.689279 27.027115 0.436440 0.000000 0.000000 0.000000 8.282694 -10.883264 2.964484 -57.237265 -5.252435 32.107391 57.375358 -3.769606 4.877947 -1.113350 3.620149 -30.060291 0.000067 -0.000004 -0.000003 0.000000 0.000000 0.000000 8.282694 -10.883264 2.964484 -24.976935 3.249484 -42.210699 56.960527 9.217798 0.131410 -30.602956 -13.639866 33.354754 -0.144877 -0.000032 -0.000003 0.000000 0.000000 0.000000 8.282694 -10.883264 2.964484 8.101188 1.491217 -1.808019 6.424814 1.700722 -0.678535 0.000000 0.000000 0.000000 0.000000 0.000000 0.000000 6.426785 1.696288 -0.663806 -1.399321 -0.079352 0.400460 -17.882646 -0.522032 1.533365 0.000000 0.000000 0.000000 6.426785 1.696288 -0.663806 2.616661 -14.944688 -9.230445 0.000000 0.000000 0.000000 -25.384671 -5.564504 -47.444499 179.999991 -55.224982 179.999991 0.000000 0.000000 0.000000 6.426785 1.696288 -0.663806 1.659454 9.536468 9.550710 0.000000 0.000000 0.000000 5.371347 4.326798 40.644717 -0.001590 89.787857 0.002506 0.000000 0.000000 0.000000 
